<svg width="40" height="32" viewBox="0 0 40 32" fill="none" xmlns="http://www.w3.org/2000/svg">
<path d="M13.7943 12.6048L11.2695 15.1053C10.7876 15.5826 10.7876 16.3564 11.2695 16.8337L14.0506 19.588C14.5686 20.1009 15.8784 19.6152 16.3963 19.1023L18.5436 16.9757C18.7751 16.7465 18.9051 16.4356 18.9051 16.1115L18.9051 14.7748C18.9051 12.7498 20.5627 11.1082 22.6074 11.1082H26.2199C28.2646 11.1082 29.9222 12.7498 29.9222 14.7748L29.9222 18.3525C29.9222 20.3775 28.2646 22.0191 26.2199 22.0191H24.8704C24.5431 22.0191 24.2292 22.1478 23.9977 22.377L21.8503 24.5037C21.3324 25.0166 20.842 26.3138 21.3599 26.8267L24.141 29.581C24.623 30.0583 25.4044 30.0583 25.8863 29.581L28.5698 26.9234C28.888 26.6083 28.9929 26.1477 28.9446 25.7047C28.8142 24.5062 29.2128 23.2619 30.1404 22.3431C31.0681 21.4244 32.3245 21.0297 33.5347 21.1589C33.9821 21.2067 34.4472 21.1028 34.7653 20.7877L38.7578 16.8337C39.2398 16.3564 39.2398 15.5826 38.7578 15.1053L35.2063 11.5881C34.8734 11.2584 34.3816 11.162 33.9148 11.2224C32.768 11.3706 31.5668 11.0085 30.6858 10.136C29.8049 9.2635 29.4392 8.07392 29.5889 6.93821C29.6498 6.47593 29.5525 5.98879 29.2196 5.65914L25.8863 2.35797C25.4044 1.88068 24.623 1.88068 24.141 2.35797L20.3072 6.15477C19.9629 6.49573 19.8699 7.00334 19.9536 7.47833C20.1791 8.75699 19.7932 10.1207 18.7961 11.1082C17.7989 12.0958 16.4219 12.4779 15.1308 12.2546C14.6512 12.1717 14.1386 12.2639 13.7943 12.6048Z" fill="#E3FF34"/>
<path d="M10.7081 5.50661L13.233 3.00614C13.7149 2.52884 14.4963 2.52884 14.9783 3.00614L17.7594 5.76043C18.2773 6.27336 17.7869 7.57053 17.2689 8.08345L15.1216 10.2101C14.8902 10.4393 14.5763 10.568 14.249 10.568H12.8993C10.8546 10.568 9.19699 12.2096 9.19699 14.2346L9.19698 17.8123C9.19698 19.8373 10.8546 21.4789 12.8993 21.4789L16.5118 21.4789C18.5565 21.4789 20.2141 19.8373 20.2141 17.8123V16.4757C20.2141 16.1516 20.3441 15.8407 20.5756 15.6115L22.723 13.4849C23.2409 12.9719 24.5507 12.4862 25.0686 12.9991L27.8498 15.7534C28.3317 16.2307 28.3317 17.0046 27.8498 17.4819L25.1662 20.1395C24.8481 20.4546 24.383 20.5585 23.9356 20.5107C22.7255 20.3815 21.469 20.7762 20.5414 21.695C19.6137 22.6137 19.2151 23.858 19.3456 25.0565C19.3938 25.4995 19.2889 25.9601 18.9707 26.2752L14.9782 30.2292C14.4963 30.7065 13.7149 30.7065 13.233 30.2292L9.68147 26.712C9.3486 26.3823 9.25129 25.8952 9.31222 25.4329C9.4619 24.2972 9.09624 23.1076 8.21526 22.2351C7.33427 21.3626 6.1331 21.0005 4.98632 21.1487C4.51954 21.2091 4.02766 21.1127 3.69479 20.7831L0.361461 17.4819C-0.120487 17.0046 -0.120487 16.2307 0.361461 15.7534L4.19526 11.9566C4.53953 11.6157 5.05209 11.5235 5.53171 11.6065C6.82282 11.8297 8.19981 11.4476 9.19698 10.4601C10.1942 9.47252 10.58 8.10882 10.3546 6.83016C10.2708 6.35517 10.3639 5.84756 10.7081 5.50661Z" fill="#E3FF34"/>
</svg>
